# xmcd
#
# Track frame offsets:
#	150
#	20242
#	41951
#	57116
#	71209
#	88309
#	108427
#	122489
#	159022
#
# Disc length: 2543 seconds
#
# Revision: 0
# Processed by: cddbd v1.5.2PL0 Copyright (c) Steve Scherf et al.
# Submitted via: dBpowerAMP V4.0
#
DISCID=7a09ed09
DTITLE=Mary Bridget Davies - Mary Bridget Davies
DYEAR=2008
DGENRE=Blues
TTITLE0=Tit For Tat
TTITLE1=Maybe
TTITLE2=C.O.D.
TTITLE3=Black Cat Bone
TTITLE4=Please Send Me Someone To Love
TTITLE5=Real Thing
TTITLE6=Ain't That Lovin' You Babe
TTITLE7=Shaky Ground - Superstition: Live
TTITLE8=Dr. Feelgood: Live
EXTD=
EXTT0=
EXTT1=
EXTT2=
EXTT3=
EXTT4=
EXTT5=
EXTT6=
EXTT7=
EXTT8=
PLAYORDER=
